<?xml version="1.0" standalone="no"?>
<!DOCTYPE svg PUBLIC "-//W3C//DTD SVG 20010904//EN"
 "http://www.w3.org/TR/2001/REC-SVG-20010904/DTD/svg10.dtd">
<svg version="1.0" xmlns="http://www.w3.org/2000/svg"
 width="512.000000pt" height="512.000000pt" viewBox="0 0 512.000000 512.000000"
 preserveAspectRatio="xMidYMid meet">
<metadata>
Created by potrace 1.14, written by Peter Selinger 2001-2017
</metadata>
<g transform="translate(0.000000,512.000000) scale(0.100000,-0.100000)"
fill="#000000" stroke="none">
<path d="M2325 5109 c-857 -82 -1620 -590 -2029 -1349 -145 -271 -257 -646
-285 -960 -14 -146 -14 -504 -1 -680 11 -145 41 -344 65 -425 10 -35 13 -40
10 -15 -13 91 -17 435 -6 540 48 453 190 838 440 1195 52 74 195 248 219 266
9 7 5 0 -9 -16 -25 -30 -119 -158 -133 -183 -4 -7 -2 -19 4 -27 16 -19 -6 -48
-30 -42 -13 3 -27 -13 -53 -57 -288 -498 -395 -1082 -301 -1641 26 -157 72
-332 103 -392 36 -72 135 -224 211 -323 266 -349 648 -642 1048 -804 212 -86
399 -138 622 -173 162 -25 558 -25 720 0 845 131 1537 628 1921 1379 179 352
283 780 278 1153 l-2 100 -8 -85 c-43 -419 -198 -851 -429 -1194 -303 -452
-703 -769 -1170 -926 -369 -123 -797 -145 -1184 -59 -320 71 -663 237 -918
447 -101 82 -262 251 -336 350 -175 237 -297 542 -337 848 -8 63 -15 122 -15
131 0 13 -7 10 -30 -12 -16 -16 -30 -33 -30 -39 0 -5 14 -25 32 -43 41 -43 30
-53 -15 -14 -19 17 -38 31 -43 31 -4 0 -23 -14 -41 -32 -45 -43 -53 -29 -10
19 l35 38 -35 38 c-45 50 -34 61 15 15 l37 -36 43 38 42 38 0 99 c0 306 92
627 260 902 235 386 566 641 964 741 262 66 483 66 742 0 255 -66 467 -187
670 -382 l90 -87 44 44 44 45 -40 43 c-57 59 -69 77 -55 77 7 0 34 -20 60 -45
26 -25 52 -45 58 -45 5 0 22 14 39 31 38 40 84 73 84 60 0 -5 -23 -35 -51 -65
l-51 -56 51 -55 c28 -29 51 -56 51 -59 0 -15 -20 -2 -71 43 l-55 49 -47 -44
-46 -45 45 -66 c87 -127 171 -326 198 -468 27 -138 23 -361 -8 -495 -81 -347
-323 -656 -618 -789 -156 -70 -345 -101 -504 -82 -53 6 -99 10 -101 8 -2 -2
34 -13 79 -23 124 -28 371 -26 491 4 133 33 240 79 346 149 l96 63 -44 -44
c-159 -162 -404 -276 -659 -306 -434 -52 -905 196 -1073 565 -141 311 -79 704
149 944 50 53 57 58 36 26 -46 -71 -83 -152 -110 -242 -22 -72 -27 -113 -29
-223 -3 -131 -3 -132 5 -38 32 388 313 677 659 678 339 1 615 -291 562 -591
-35 -196 -179 -339 -358 -356 -63 -6 -65 -7 -33 -15 51 -12 155 1 230 28 35
13 66 22 67 20 7 -6 -85 -84 -128 -109 -57 -33 -148 -57 -220 -57 -72 0 -152
39 -236 115 -110 99 -163 213 -166 356 -1 70 1 80 32 130 35 57 112 132 97 94
-36 -86 -40 -106 -40 -185 0 -71 5 -95 28 -147 112 -248 446 -273 580 -43 69
118 79 225 33 350 -23 63 -108 154 -171 184 -107 50 -248 31 -342 -47 -16 -13
-50 -31 -77 -40 -46 -15 -47 -15 -37 3 13 25 105 95 145 110 17 7 62 18 100
25 l70 13 -82 1 c-139 2 -252 -45 -338 -141 -100 -111 -146 -228 -147 -373 -2
-225 102 -396 312 -513 93 -52 174 -73 296 -79 232 -12 430 75 571 250 131
161 191 323 198 532 2 66 2 107 -1 90 -2 -16 -9 -66 -15 -110 -21 -153 -88
-294 -200 -415 l-50 -55 27 45 c111 183 143 403 90 613 -77 301 -341 544 -676
621 -258 60 -561 0 -775 -152 l-50 -36 35 38 c123 132 332 240 536 276 70 12
307 9 364 -4 21 -6 22 -5 5 3 -59 26 -197 45 -325 45 -144 0 -242 -15 -372
-60 -489 -166 -853 -752 -825 -1328 14 -289 105 -557 263 -776 70 -97 248
-272 368 -362 677 -505 1617 -485 2288 50 90 72 263 247 343 347 352 439 540
983 537 1555 -1 215 -24 396 -76 605 -42 164 -96 265 -260 485 -91 122 -364
395 -487 487 -520 388 -1158 571 -1784 512z m206 -339 c541 -55 1065 -321
1417 -720 371 -421 524 -999 416 -1574 -5 -30 -3 -36 10 -36 23 0 66 -45 66
-68 0 -10 -10 -29 -21 -41 -18 -19 -29 -22 -59 -18 l-38 5 -22 -67 c-70 -210
-228 -469 -400 -651 l-52 -55 40 50 c123 154 244 378 306 565 171 517 90 1120
-212 1575 -81 122 -105 152 -235 283 -338 342 -774 559 -1263 628 -152 21
-447 21 -598 0 -367 -52 -711 -194 -1006 -414 -78 -58 -81 -59 -35 -16 135
127 333 261 520 350 244 118 440 171 760 208 70 8 311 5 406 -4z m1472 -374
c8 -20 -8 -38 -29 -34 -22 4 -31 37 -13 48 15 10 36 3 42 -14z m-1859 -52 c41
-40 -7 -109 -59 -86 -14 6 -27 23 -31 37 -13 50 53 86 90 49z m-711 -435 c7 0
2 -4 -10 -9 -11 -5 -31 -6 -44 -3 -22 6 -22 7 -3 14 10 4 25 6 32 3 8 -2 19
-4 25 -5z m3225 -700 c15 -1 15 -2 0 -6 -10 -2 -19 -12 -19 -21 -1 -15 -2 -15
-6 1 -2 9 -12 18 -21 18 -15 1 -15 2 1 6 9 2 18 12 18 21 1 15 2 15 6 0 2 -10
12 -19 21 -19z m-273 -1542 c21 -16 15 -61 -11 -71 -39 -15 -73 41 -42 72 16
16 30 15 53 -1z m-1236 -584 l1 -53 43 0 c23 0 59 -3 80 -7 57 -9 25 -23 -55
-23 l-68 0 0 -49 c0 -27 -3 -63 -6 -81 -10 -50 -24 -15 -24 63 l0 67 -67 0
c-81 0 -113 14 -56 23 21 4 57 7 81 7 l42 0 0 73 c0 121 26 102 29 -20z
m-1719 -348 c26 -32 -13 -81 -47 -59 -35 22 -23 74 17 74 10 0 23 -7 30 -15z"/>
</g>
</svg>
